<svg xmlns="http://www.w3.org/2000/svg" viewBox="0 0 80 102" width="80" height="102"><path fill="#FFFFFF" fill-rule="evenodd" d="M55.14 86L65 86Q65.6 86 66.15 86.23Q66.7 86.46 67.12 86.88Q67.54 87.3 67.77 87.85Q68 88.4 68 89L68 90Q68 90.6 67.77 91.15Q67.54 91.7 67.12 92.12Q66.7 92.54 66.15 92.77Q65.6 93 65 93L15 93Q14.4 93 13.85 92.77Q13.3 92.54 12.88 92.12Q12.46 91.7 12.23 91.15Q12 90.6 12 90L12 89Q12 88.4 12.23 87.85Q12.46 87.3 12.88 86.88Q13.3 86.46 13.85 86.23Q14.4 86 15 86L25.82 86L21 32C20 18 30 10 41 10C53 10 61 18 59 32L55.14 86ZM42 32L42 40.17L47.59 34.59Q47.87 34.3 48.23 34.15Q48.6 34 49 34Q49.4 34 49.77 34.15Q50.13 34.3 50.41 34.59Q50.7 34.87 50.85 35.23Q51 35.6 51 36Q51 36.4 50.85 36.77Q50.7 37.13 50.41 37.41L42 45.83L42 70Q42 70.4 41.85 70.77Q41.7 71.13 41.41 71.41Q41.13 71.7 40.77 71.85Q40.4 72 40 72Q39.6 72 39.23 71.85Q38.87 71.7 38.59 71.41Q38.3 71.13 38.15 70.77Q38 70.4 38 70L38 62.83L34.41 66.41Q34.27 66.55 34.11 66.66Q33.95 66.77 33.77 66.85Q33.58 66.92 33.39 66.96Q33.2 67 33 67Q32.8 67 32.61 66.96Q32.42 66.92 32.23 66.85Q32.05 66.77 31.89 66.66Q31.73 66.55 31.59 66.41Q31.3 66.13 31.15 65.77Q31 65.4 31 65Q31 64.6 31.15 64.23Q31.3 63.87 31.59 63.59L38 57.17L38 45.83L29.59 37.41Q29.3 37.13 29.15 36.77Q29 36.4 29 36Q29 35.6 29.15 35.23Q29.3 34.87 29.59 34.59Q29.73 34.45 29.89 34.34Q30.05 34.23 30.23 34.15Q30.42 34.08 30.61 34.04Q30.8 34 31 34Q31.2 34 31.39 34.04Q31.58 34.08 31.77 34.15Q31.95 34.23 32.11 34.34Q32.27 34.45 32.41 34.59L38 40.17L38 32Q38 31.6 38.15 31.23Q38.3 30.87 38.59 30.59Q38.87 30.3 39.23 30.15Q39.6 30 40 30Q40.4 30 40.77 30.15Q41.13 30.3 41.41 30.59Q41.7 30.87 41.85 31.23Q42 31.6 42 32Z"/></svg>
