<svg xmlns="http://www.w3.org/2000/svg" viewBox="0 0 80 102" width="80" height="102"><path fill="#FFFFFF" fill-rule="evenodd" d="M18.1 88L17 88Q16.4 88 15.85 87.77Q15.3 87.54 14.88 87.12Q14.46 86.7 14.23 86.15Q14 85.6 14 85L14 19Q14 18.4 14.23 17.85Q14.46 17.3 14.88 16.88Q15.3 16.46 15.85 16.23Q16.4 16 17 16L18.1 16Q18.27 15.15 18.72 14.41Q19.17 13.67 19.84 13.13Q20.51 12.58 21.32 12.29Q22.14 12 23 12L59 12Q59.99 12 60.91 12.38Q61.83 12.76 62.54 13.46Q63.24 14.17 63.62 15.09Q64 16.01 64 17L64 87Q64 87.99 63.62 88.91Q63.24 89.83 62.54 90.54Q61.83 91.24 60.91 91.62Q59.99 92 59 92L23 92Q22.14 92 21.32 91.71Q20.51 91.42 19.84 90.87Q19.17 90.33 18.72 89.59Q18.27 88.85 18.1 88ZM23.25 16L23.25 88Q23.25 88.25 23.15 88.48Q23.06 88.71 22.88 88.88Q22.71 89.06 22.48 89.15Q22.25 89.25 22 89.25Q21.75 89.25 21.52 89.15Q21.29 89.06 21.12 88.88Q20.94 88.71 20.85 88.48Q20.75 88.25 20.75 88L20.75 16Q20.75 15.75 20.85 15.52Q20.94 15.29 21.12 15.12Q21.29 14.94 21.52 14.85Q21.75 14.75 22 14.75Q22.25 14.75 22.48 14.85Q22.71 14.94 22.88 15.12Q23.06 15.29 23.15 15.52Q23.25 15.75 23.25 16ZM58 50C50 36 32 36 24 50C32 64 50 64 58 50ZM54 50C48 40 34 40 28 50C34 60 48 60 54 50ZM48 50Q48 51.39 47.47 52.68Q46.93 53.97 45.95 54.95Q44.97 55.93 43.68 56.47Q42.39 57 41 57Q39.61 57 38.32 56.47Q37.03 55.93 36.05 54.95Q35.07 53.97 34.53 52.68Q34 51.39 34 50Q34 48.61 34.53 47.32Q35.07 46.03 36.05 45.05Q37.03 44.07 38.32 43.53Q39.61 43 41 43Q42.39 43 43.68 43.53Q44.97 44.07 45.95 45.05Q46.93 46.03 47.47 47.32Q48 48.61 48 50ZM44.5 50Q44.5 50.7 44.23 51.34Q43.97 51.98 43.47 52.47Q42.98 52.97 42.34 53.23Q41.7 53.5 41 53.5Q40.3 53.5 39.66 53.23Q39.02 52.97 38.53 52.47Q38.03 51.98 37.77 51.34Q37.5 50.7 37.5 50Q37.5 49.3 37.77 48.66Q38.03 48.02 38.53 47.53Q39.02 47.03 39.66 46.77Q40.3 46.5 41 46.5Q41.7 46.5 42.34 46.77Q42.98 47.03 43.47 47.53Q43.97 48.02 44.23 48.66Q44.5 49.3 44.5 50Z"/></svg>
