<svg xmlns="http://www.w3.org/2000/svg" viewBox="0 0 80 102" width="80" height="102"><path fill="#FFFFFF" fill-rule="evenodd" d="M40.8 1.11L76.8 11.11Q77.28 11.24 77.68 11.52Q78.09 11.79 78.39 12.18Q78.69 12.58 78.84 13.04Q79 13.51 79 14L79 48Q79 81.85 41.34 100.68Q41.03 100.84 40.69 100.92Q40.35 101 40 101Q39.65 101 39.31 100.92Q38.97 100.84 38.66 100.68Q1 81.85 1 48L1 14Q1 13.51 1.16 13.04Q1.31 12.58 1.61 12.18Q1.91 11.79 2.32 11.52Q2.72 11.24 3.2 11.11L39.2 1.11Q39.39 1.05 39.59 1.03Q39.8 1 40 1Q40.2 1 40.41 1.03Q40.61 1.05 40.8 1.11ZM7 16.28L40 7.11L73 16.28L73 48Q73 77.55 40 94.63Q7 77.55 7 48L7 16.28ZM14 50Q27 44 40 50Q53 56 66 50C66 66 54 78 40 86C26 78 14 66 14 50Z"/></svg>
